<svg xmlns="http://www.w3.org/2000/svg" viewBox="0 0 220 49.41"><defs><style>.cls-1{fill:#3e6866;}.cls-2{fill:#50c1ae;}</style></defs><g id="Layer_2" data-name="Layer 2"><g id="Layer_1-2" data-name="Layer 1"><g id="_15937097-ecb3-45a6-ad10-d94d33e4ba36" data-name="15937097-ecb3-45a6-ad10-d94d33e4ba36"><path class="cls-1" d="M83.88,29.18h0a14.2,14.2,0,0,1-.81,4.93,11.42,11.42,0,0,1-2.2,3.77,10.19,10.19,0,0,1-3.42,2.44,10.75,10.75,0,0,1-4.3.85h0a10.76,10.76,0,0,1-4.31-.85,10.19,10.19,0,0,1-3.42-2.44,11.42,11.42,0,0,1-2.2-3.77,14.2,14.2,0,0,1-.81-4.93h0a14.07,14.07,0,0,1,.81-4.9,11.27,11.27,0,0,1,2.2-3.8A9.69,9.69,0,0,1,68.84,18a10.94,10.94,0,0,1,4.31-.85h0a10.92,10.92,0,0,1,4.3.85,9.69,9.69,0,0,1,3.42,2.45,11.27,11.27,0,0,1,2.2,3.8A14.07,14.07,0,0,1,83.88,29.18Zm-4.27,0h0a9.75,9.75,0,0,0-1.75-6.13,5.62,5.62,0,0,0-4.71-2.29h0a5.6,5.6,0,0,0-4.71,2.29,9.69,9.69,0,0,0-1.76,6.13h0a9.68,9.68,0,0,0,1.76,6.12,5.6,5.6,0,0,0,4.71,2.26h0a5.62,5.62,0,0,0,4.71-2.26A9.74,9.74,0,0,0,79.61,29.18Zm19.94,12h0a12.21,12.21,0,0,1-4.83-.88,9.33,9.33,0,0,1-3.52-2.48A10,10,0,0,1,89.06,34a15.4,15.4,0,0,1-.72-4.83h0a14.16,14.16,0,0,1,.79-4.84,11.17,11.17,0,0,1,2.16-3.8,10.18,10.18,0,0,1,3.46-2.51,11.5,11.5,0,0,1,4.55-.88h0a20,20,0,0,1,3.08.25,13,13,0,0,1,3,.85h0l-.94,3.46a8.57,8.57,0,0,0-2.11-.69,11.24,11.24,0,0,0-2.57-.29h0a6.51,6.51,0,0,0-5.28,2.17c-1.21,1.44-1.82,3.54-1.82,6.28h0A13.35,13.35,0,0,0,93,32.6a7.28,7.28,0,0,0,1.32,2.64,5.94,5.94,0,0,0,2.32,1.69,8.81,8.81,0,0,0,3.43.6h0a12.78,12.78,0,0,0,3-.31,11.55,11.55,0,0,0,2.07-.66h0l.57,3.42a4.18,4.18,0,0,1-1,.41,11.52,11.52,0,0,1-1.51.37c-.54.11-1.13.19-1.76.26A15,15,0,0,1,99.55,41.14ZM113.9,10.65v7.1h8.67v3.42H113.9V31.72a13.65,13.65,0,0,0,.25,2.83,4.57,4.57,0,0,0,.79,1.76,2.7,2.7,0,0,0,1.32.91,6.52,6.52,0,0,0,1.85.25h0a9,9,0,0,0,3-.41c.73-.27,1.25-.47,1.54-.6h0l.82,3.39a14.54,14.54,0,0,1-2.17.76,12.19,12.19,0,0,1-3.52.47h0a10.72,10.72,0,0,1-3.86-.6,5.66,5.66,0,0,1-2.42-1.76,7.12,7.12,0,0,1-1.31-2.92,20.37,20.37,0,0,1-.35-4h0V11.37Zm21.57,27h0c1,0,1.82,0,2.58-.07a9.75,9.75,0,0,0,1.88-.25h0V30.53a5.3,5.3,0,0,0-1.44-.38A16,16,0,0,0,136.1,30h0a13.88,13.88,0,0,0-2,.16,6.25,6.25,0,0,0-1.88.53,3.85,3.85,0,0,0-1.41,1.14,3.07,3.07,0,0,0-.57,1.91h0a3.37,3.37,0,0,0,1.38,3.08A7.47,7.47,0,0,0,135.47,37.66Zm-.34-20.48h0a11.94,11.94,0,0,1,4.14.63,6.45,6.45,0,0,1,4.21,4.59,13.33,13.33,0,0,1,.44,3.51h0V40.2l-1.48.25c-.62.1-1.34.2-2.13.28s-1.66.17-2.58.25-1.83.1-2.73.1h0a16,16,0,0,1-3.58-.38,8.28,8.28,0,0,1-2.79-1.25,5.88,5.88,0,0,1-1.85-2.27,8,8,0,0,1-.66-3.39h0a6.53,6.53,0,0,1,.78-3.26,6.14,6.14,0,0,1,2.07-2.2,10.28,10.28,0,0,1,3.08-1.22,15.92,15.92,0,0,1,3.71-.41h0c.39,0,.81,0,1.25.06l1.26.19,1,.19a6,6,0,0,1,.63.15h0V26.13a9.17,9.17,0,0,0-.22-2,4.21,4.21,0,0,0-.81-1.72,3.93,3.93,0,0,0-1.54-1.26,6.54,6.54,0,0,0-2.58-.44h0a19.43,19.43,0,0,0-3.55.28,12.31,12.31,0,0,0-2.26.6h0l-.47-3.39a13.37,13.37,0,0,1,2.64-.69A23.37,23.37,0,0,1,135.13,17.18ZM150.7,40.61V18.41c.92-.23,2.17-.48,3.74-.76a31.42,31.42,0,0,1,5.34-.4h0a11.61,11.61,0,0,1,4.55.78,7,7,0,0,1,2.86,2.14,8.38,8.38,0,0,1,1.53,3.32,19.05,19.05,0,0,1,.44,4.27h0V40.61h-4.11v-12a19.82,19.82,0,0,0-.28-3.61,6.17,6.17,0,0,0-.94-2.41,3.89,3.89,0,0,0-1.76-1.35,7.7,7.7,0,0,0-2.73-.41h0q-.66,0-1.35.06t-1.35.09c-.42,0-.8.1-1.13.16l-.73.13h0V40.61ZM180,17.75V40.61h-4.08V17.75Zm-2-4.15h0a2.7,2.7,0,0,1-1.89-.72,2.58,2.58,0,0,1-.75-2h0a2.67,2.67,0,0,1,.75-2A2.71,2.71,0,0,1,178,8.23h0a2.58,2.58,0,0,1,1.85.73,2.61,2.61,0,0,1,.78,2h0a2.52,2.52,0,0,1-.78,2A2.57,2.57,0,0,1,178,13.6Zm14.41,24.06h0a7.93,7.93,0,0,0,3.7-.66,2.22,2.22,0,0,0,1.23-2.11h0a2.81,2.81,0,0,0-1.19-2.38,18.87,18.87,0,0,0-3.93-2h0c-.88-.36-1.72-.71-2.51-1.07a10,10,0,0,1-2.11-1.29,5.9,5.9,0,0,1-1.41-1.82,6,6,0,0,1-.5-2.57h0a5.87,5.87,0,0,1,2.23-4.84A9.64,9.64,0,0,1,194,17.18h0a17.9,17.9,0,0,1,1.92.1c.65.08,1.25.18,1.82.28a11.22,11.22,0,0,1,1.44.31c.44.13.78.23,1,.32h0l-.76,3.51a10.75,10.75,0,0,0-2.07-.72,13,13,0,0,0-3.36-.37h0a6.51,6.51,0,0,0-3,.66,2.27,2.27,0,0,0-1.26,2.13h0a3.05,3.05,0,0,0,.28,1.32,2.89,2.89,0,0,0,.88,1,7.51,7.51,0,0,0,1.48.87c.58.26,1.29.53,2.1.82h0c1.09.42,2.05.83,2.89,1.23a9,9,0,0,1,2.2,1.38A5.42,5.42,0,0,1,200.94,32a7,7,0,0,1,.47,2.73h0a5.47,5.47,0,0,1-2.35,4.81,11.64,11.64,0,0,1-6.69,1.63h0a16.71,16.71,0,0,1-4.74-.53c-1.15-.34-1.94-.59-2.36-.76h0l.76-3.51,2.26.78A12.58,12.58,0,0,0,192.37,37.66Zm18.12-27v7.1h8.63v3.42h-8.63V31.72a13,13,0,0,0,.25,2.83,4,4,0,0,0,.78,1.76,2.79,2.79,0,0,0,1.32.91,6.32,6.32,0,0,0,1.85.25h0a9.08,9.08,0,0,0,3-.41c.73-.27,1.24-.47,1.54-.6h0l.78,3.39a13.09,13.09,0,0,1-2.14.76,12.07,12.07,0,0,1-3.51.47h0a10.68,10.68,0,0,1-3.86-.6,5.6,5.6,0,0,1-2.42-1.76,7,7,0,0,1-1.32-2.92,19.5,19.5,0,0,1-.38-4h0V11.37Z"/></g><g id="_746c6e1a-f348-4b0a-ab78-73b73ab2d04d" data-name="746c6e1a-f348-4b0a-ab78-73b73ab2d04d"><path class="cls-2" d="M37.06,24.7V19.21a6.87,6.87,0,0,0-6.87-6.86H24.7v-11A1.35,1.35,0,0,0,23.33,0h-22A1.35,1.35,0,0,0,0,1.37v22A1.35,1.35,0,0,0,1.37,24.7h11v5.49a6.87,6.87,0,0,0,6.86,6.87H24.7A12.36,12.36,0,1,0,37.06,24.7ZM12.35,19.21V22H2.74V2.74H22v9.61H19.21A6.87,6.87,0,0,0,12.35,19.21Zm6.86,15.1a4.14,4.14,0,0,1-4.11-4.12v-11a4.14,4.14,0,0,1,4.11-4.11h11a4.14,4.14,0,0,1,4.12,4.11V25A12.35,12.35,0,0,0,25,34.31ZM37.06,46.66a9.61,9.61,0,1,1,9.6-9.6A9.65,9.65,0,0,1,37.06,46.66Z"/></g></g></g></svg>