<svg xmlns="http://www.w3.org/2000/svg" viewBox="0 0 603.5 135.53"><defs><style>.cls-1{fill:#fff;}.cls-2{fill:#50c1ae;}</style></defs><g id="Layer_2" data-name="Layer 2"><g id="Layer_1-2" data-name="Layer 1"><g id="_15937097-ecb3-45a6-ad10-d94d33e4ba36" data-name="15937097-ecb3-45a6-ad10-d94d33e4ba36"><path class="cls-1" d="M230.11,80h0a38.65,38.65,0,0,1-2.24,13.52,30.81,30.81,0,0,1-6,10.34,28.16,28.16,0,0,1-9.39,6.72,29.65,29.65,0,0,1-11.8,2.32h0a29.65,29.65,0,0,1-11.8-2.32,28.16,28.16,0,0,1-9.39-6.72,30.81,30.81,0,0,1-6-10.34A38.65,38.65,0,0,1,171.19,80h0a38.43,38.43,0,0,1,2.24-13.44,30.7,30.7,0,0,1,6-10.42,26.58,26.58,0,0,1,9.39-6.72,29.65,29.65,0,0,1,11.8-2.32h0a29.65,29.65,0,0,1,11.8,2.32,26.58,26.58,0,0,1,9.39,6.72,30.7,30.7,0,0,1,6,10.42A38.43,38.43,0,0,1,230.11,80Zm-11.72,0h0q0-10.59-4.82-16.8A15.3,15.3,0,0,0,200.65,57h0a15.31,15.31,0,0,0-12.92,6.28q-4.81,6.21-4.82,16.8h0q0,10.59,4.82,16.8a15.4,15.4,0,0,0,12.92,6.2h0a15.39,15.39,0,0,0,12.92-6.2Q218.4,90.63,218.39,80Zm54.7,32.82h0a33.89,33.89,0,0,1-13.26-2.41,26,26,0,0,1-9.65-6.81,27,27,0,0,1-5.86-10.25,42.31,42.31,0,0,1-2-13.26h0a39.34,39.34,0,0,1,2.15-13.27,30.44,30.44,0,0,1,5.95-10.42,27.15,27.15,0,0,1,9.47-6.89,31.23,31.23,0,0,1,12.49-2.41h0a52.22,52.22,0,0,1,8.44.69,35.5,35.5,0,0,1,8.1,2.32h0l-2.59,9.48a24.73,24.73,0,0,0-5.77-1.9,31.12,31.12,0,0,0-7.06-.77h0Q264,57,259.05,62.9t-5,17.23h0a36.58,36.58,0,0,0,1.12,9.3,20.48,20.48,0,0,0,3.62,7.23,16.52,16.52,0,0,0,6.38,4.66,24.09,24.09,0,0,0,9.38,1.63h0a35.25,35.25,0,0,0,8.1-.86,31.77,31.77,0,0,0,5.69-1.81h0l1.55,9.39a10.83,10.83,0,0,1-2.76,1.12,30.34,30.34,0,0,1-4.13,1q-2.25.44-4.83.69A39.7,39.7,0,0,1,273.09,112.86Zm39.36-83.64V48.69h23.78v9.39H312.45V87a35.72,35.72,0,0,0,.69,7.75,12.57,12.57,0,0,0,2.16,4.82,7.48,7.48,0,0,0,3.61,2.5,17.31,17.31,0,0,0,5.09.69h0a24.56,24.56,0,0,0,8.18-1.12c2-.75,3.41-1.29,4.22-1.64h0l2.24,9.31a38.67,38.67,0,0,1-5.95,2.06,32.94,32.94,0,0,1-9.64,1.29h0a29.63,29.63,0,0,1-10.6-1.63,15.46,15.46,0,0,1-6.63-4.83,19.41,19.41,0,0,1-3.62-8,58.24,58.24,0,0,1-.94-11.11h0V31.2Zm59.18,74.08h0q4,0,7.06-.18a27.37,27.37,0,0,0,5.17-.69h0V83.74a15,15,0,0,0-4-1,41.75,41.75,0,0,0-6.55-.43h0a36,36,0,0,0-5.43.43,17.42,17.42,0,0,0-5.16,1.46,10.66,10.66,0,0,0-3.88,3.11,8.5,8.5,0,0,0-1.55,5.25h0q0,6,3.79,8.44T371.63,103.3Zm-.95-56.16h0a32.87,32.87,0,0,1,11.37,1.72,17.65,17.65,0,0,1,11.54,12.58,36,36,0,0,1,1.21,9.64h0v39.19q-1.47.27-4.05.69c-1.72.29-3.68.55-5.86.78s-4.53.46-7.06.69-5,.25-7.49.25h0a43.53,43.53,0,0,1-9.82-1,22.89,22.89,0,0,1-7.67-3.44,16.25,16.25,0,0,1-5.08-6.21A21.76,21.76,0,0,1,346,92.7h0a17.92,17.92,0,0,1,2.15-9,16.86,16.86,0,0,1,5.69-6,27.74,27.74,0,0,1,8.44-3.35,44.56,44.56,0,0,1,10.16-1.12h0c1.09,0,2.24.05,3.45.17l3.44.51c1.09.23,2,.41,2.85.52s1.37.32,1.72.43h0V71.69a25.92,25.92,0,0,0-.6-5.52A11.7,11.7,0,0,0,381,61.44,11,11,0,0,0,376.8,58a17.85,17.85,0,0,0-7.07-1.21h0a53.15,53.15,0,0,0-9.73.78,32.65,32.65,0,0,0-6.2,1.64h0l-1.29-9.31A36.29,36.29,0,0,1,359.74,48,64,64,0,0,1,370.68,47.14Zm42.72,64.25V50.5c2.53-.64,6-1.32,10.25-2.07a85,85,0,0,1,14.64-1.12h0a31.74,31.74,0,0,1,12.49,2.15,18.9,18.9,0,0,1,7.84,5.86,23,23,0,0,1,4.22,9.13,52.78,52.78,0,0,1,1.21,11.71h0v35.23H452.77V78.58a54.32,54.32,0,0,0-.78-9.91A17.16,17.16,0,0,0,449.41,62a10.79,10.79,0,0,0-4.83-3.71,21.81,21.81,0,0,0-7.49-1.12h0c-1.21,0-2.44.06-3.7.18s-2.5.14-3.71.26-2.18.25-3.1.43-1.58.28-2,.34h0v53Zm80.37-62.7v62.7h-11.2V48.69Zm-5.6-11.37h0a7.36,7.36,0,0,1-5.17-2A7,7,0,0,1,480.93,30h0a7,7,0,0,1,7.24-7.41h0a7.07,7.07,0,0,1,5.08,2A7.21,7.21,0,0,1,495.4,30h0a6.92,6.92,0,0,1-2.15,5.34A7.07,7.07,0,0,1,488.17,37.32Zm39.53,66h0c4.6,0,8-.61,10.17-1.81a6.09,6.09,0,0,0,3.36-5.77h0A7.72,7.72,0,0,0,538,89.17a52,52,0,0,0-10.76-5.43h0c-2.42-1-4.71-1.95-6.9-2.92a27.19,27.19,0,0,1-5.77-3.54,15.74,15.74,0,0,1-3.87-5,16.14,16.14,0,0,1-1.38-7.07h0A16.12,16.12,0,0,1,515.38,52q6.12-4.83,16.8-4.82h0a52.31,52.31,0,0,1,5.26.26c1.78.22,3.44.48,5,.77a30.4,30.4,0,0,1,4,.86c1.21.35,2.13.63,2.76.86h0l-2.07,9.65a29.59,29.59,0,0,0-5.68-2,35.48,35.48,0,0,0-9.22-1h0a18,18,0,0,0-8.27,1.8,6.27,6.27,0,0,0-3.44,5.86h0a8.08,8.08,0,0,0,.77,3.62,7.54,7.54,0,0,0,2.41,2.84,20.06,20.06,0,0,0,4.05,2.41q2.41,1,5.77,2.24h0Q538,77,541.4,78.66a26.1,26.1,0,0,1,6,3.79,15.4,15.4,0,0,1,3.79,5.26,19.06,19.06,0,0,1,1.29,7.49h0q0,8.7-6.46,13.18t-18.35,4.48h0q-8.36,0-13-1.47c-3.16-.92-5.32-1.61-6.46-2.06h0l2.06-9.65,6.2,2.15A35,35,0,0,0,527.7,103.3Zm49.7-74.08V48.69h23.69v9.39H577.4V87a35.72,35.72,0,0,0,.69,7.75,11.12,11.12,0,0,0,2.15,4.82,7.55,7.55,0,0,0,3.62,2.5,16.73,16.73,0,0,0,5.08.69h0a24.59,24.59,0,0,0,8.19-1.12c2-.75,3.41-1.29,4.22-1.64h0l2.15,9.31a34.59,34.59,0,0,1-5.86,2.06,33,33,0,0,1-9.64,1.29h0a29.63,29.63,0,0,1-10.6-1.63,15.4,15.4,0,0,1-6.63-4.83,19.41,19.41,0,0,1-3.62-8,53.32,53.32,0,0,1-1-11.11h0V31.2Z"/></g><g id="_746c6e1a-f348-4b0a-ab78-73b73ab2d04d" data-name="746c6e1a-f348-4b0a-ab78-73b73ab2d04d"><path class="cls-2" d="M101.65,67.77V52.71A18.83,18.83,0,0,0,82.83,33.88H67.77V3.76A3.73,3.73,0,0,0,64,0H3.76A3.73,3.73,0,0,0,0,3.76V64a3.73,3.73,0,0,0,3.76,3.77H33.88V82.83a18.83,18.83,0,0,0,18.83,18.82H67.77a33.88,33.88,0,1,0,33.88-33.88ZM33.88,52.71v7.53H7.53V7.53H60.24V33.88H52.71A18.84,18.84,0,0,0,33.88,52.71ZM52.71,94.12a11.38,11.38,0,0,1-11.3-11.29V52.71a11.38,11.38,0,0,1,11.3-11.3H82.83a11.38,11.38,0,0,1,11.29,11.3v16A33.78,33.78,0,0,0,68.67,94.12ZM101.65,128A26.35,26.35,0,1,1,128,101.65,26.47,26.47,0,0,1,101.65,128Z"/></g></g></g></svg>